HIERARCHY
ROOT Hips
{
	OFFSET 0.000000 0.000000 0.000000 
	CHANNELS 6 Xposition Yposition Zposition Yrotation Zrotation Xrotation 
	JOINT Lumbar
	{
		OFFSET 0.000000 0.000000 0.000000 
		CHANNELS 3 Zrotation Xrotation Yrotation
		JOINT Neck
		{
			OFFSET 0.000000 0.445665 0.000000 
			CHANNELS 3 Zrotation Xrotation Yrotation
			End Site
			{
				OFFSET 0.000000 0.227535 0.000000 
			}
		}
		JOINT RightShoulder
		{
			OFFSET 0.019635 0.377685 0.194865 
			CHANNELS 3 Zrotation Xrotation Yrotation
			JOINT RightElbow
			{
				OFFSET 0.000000 -0.243375 0.000000 
				CHANNELS 2 Zrotation Yrotation
				JOINT RightWrist
				{
					OFFSET 0.000000 -0.264825 0.000000 
					CHANNELS 2 Zrotation Xrotation
					End Site
					{
						OFFSET 0.006600 -0.176220 0.000990 
					}
				}
			}
		}
		JOINT LeftShoulder
		{
			OFFSET 0.019635 0.377685 -0.194865 
			CHANNELS 3 Zrotation Xrotation Yrotation
			JOINT LeftElbow
			{
				OFFSET 0.000000 -0.243375 0.000000 
				CHANNELS 2 Zrotation Yrotation
				JOINT LeftWrist
				{
					OFFSET 0.000000 -0.264825 0.000000 
					CHANNELS 2 Zrotation Xrotation
					End Site
					{
						OFFSET 0.006600 -0.176220 -0.000990 
					}
				}
			}
		}
	}
	JOINT RightHip
	{
		OFFSET 0.052140 -0.069960 0.075570 
		CHANNELS 3 Zrotation Xrotation Yrotation
		JOINT RightKnee
		{
			OFFSET 0.000000 -0.402270 0.000000 
			CHANNELS 1 Zrotation
			JOINT RightAnkle
			{
				OFFSET 0.000000 -0.404085 0.000000 
				CHANNELS 3 Zrotation Xrotation Yrotation
				End Site
				{
					OFFSET 0.204105 -0.089430 0.008415 
				}
			}
		}
	}
	JOINT LeftHip
	{
		OFFSET 0.052140 -0.069960 -0.075570 
		CHANNELS 3 Zrotation Xrotation Yrotation
		JOINT LeftKnee
		{
			OFFSET 0.000000 -0.402270 0.000000 
			CHANNELS 1 Zrotation
			JOINT LeftAnkle
			{
				OFFSET 0.000000 -0.404085 0.000000 
				CHANNELS 3 Zrotation Xrotation Yrotation
				End Site
				{
					OFFSET 0.204105 -0.089430 -0.008415 
				}
			}
		}
	}
}
MOTION
Frames: 16
Frame Time: 0.02
-5e-05 -2e-05 -1e-05 23.17864 -25.57911 -6.7851 44.01014 2.82045 -3.3663 -8.63352 -2.27532 -0.35744 -64.4005 -80.22942 -90.01175 10.12051 79.84337 -3.42351 5.16592 78.78939 97.90282 -64.16898 5.34773 -98.1869 11.00706 -0.45626 39.55762 -2.74323 -0.95797 -22.15517 -6.99326 -4.1162 -2.79251 43.76574 8.44848 -0.03756 -27.64996 -6.79289 3.83032 2.65701
-0.00013 -4e-05 2e-05 23.18531 -25.58724 -6.78971 44.01135 2.81749 -3.36143 -8.6272 -2.27539 -0.35756 -64.40049 -80.22477 -90.01173 10.11076 79.8352 -3.3308 5.16683 79.03401 97.88391 -64.16899 5.34646 -98.25213 11.02005 -0.48451 39.57137 -2.78096 -1.15587 -22.16034 -6.9832 -4.09291 -2.78039 43.78368 8.46955 0.04317 -27.6529 -6.79053 3.82477 2.65263
-0.00021 -5e-05 4e-05 23.19197 -25.59534 -6.79432 44.01254 2.81453 -3.35658 -8.62091 -2.27547 -0.35767 -64.40048 -80.22015 -90.01171 10.10102 79.82704 -3.23831 5.16774 79.27819 97.86504 -64.169 5.3452 -98.31719 11.03302 -0.51273 39.58507 -2.81862 -1.35341 -22.1655 -6.97315 -4.06965 -2.76829 43.80156 8.49056 0.12366 -27.65582 -6.78817 3.81923 2.64827
-0.00029 -7e-05 6e-05 23.19861 -25.60344 -6.79892 44.01375 2.81158 -3.35172 -8.61461 -2.27554 -0.35779 -64.40047 -80.21551 -90.01169 10.0913 79.81889 -3.14587 5.16864 79.52211 97.84618 -64.16901 5.34394 -98.38223 11.04597 -0.5409 39.59877 -2.85623 -1.55075 -22.17066 -6.96312 -4.04642 -2.75621 43.81945 8.51157 0.20414 -27.65874 -6.78581 3.81369 2.64391
-0.00037 -9e-05 8e-05 23.20527 -25.61158 -6.80353 44.01498 2.80863 -3.34685 -8.6083 -2.27561 -0.3579 -64.40045 -80.21084 -90.01167 10.08155 79.81073 -3.05326 5.16955 79.76633 97.82727 -64.16901 5.34268 -98.44739 11.05894 -0.56909 39.61253 -2.8939 -1.74832 -22.17584 -6.95307 -4.02318 -2.74411 43.8374 8.53265 0.28487 -27.66168 -6.78345 3.80814 2.63954
-0.00045 -0.00011 0.0001 23.21192 -25.61959 -6.80811 44.01608 2.80568 -3.34202 -8.60204 -2.27568 -0.35802 -64.40044 -80.20633 -90.01165 10.07185 79.80258 -2.96103 5.17046 80.01038 97.80849 -64.16902 5.34142 -98.51225 11.07191 -0.59738 39.62608 -2.93154 -1.94576 -22.18095 -6.94302 -3.99989 -2.73201 43.85513 8.55352 0.36483 -27.66458 -6.7811 3.80262 2.6352
-0.00053 -0.00012 0.00013 23.21859 -25.62785 -6.81275 44.01745 2.80272 -3.33711 -8.59568 -2.27575 -0.35813 -64.40043 -80.2015 -90.01163 10.06207 79.79441 -2.86812 5.17135 80.25456 97.78948 -64.16903 5.34015 -98.57766 11.08486 -0.62543 39.64004 -2.96919 -2.14331 -22.18619 -6.93299 -3.97672 -2.71993 43.87327 8.57477 0.44625 -27.66754 -6.77872 3.79705 2.6308
-0.00061 -0.00014 0.00015 23.22523 -25.63588 -6.81733 44.01857 2.79977 -3.33227 -8.58941 -2.27582 -0.35825 -64.40042 -80.19696 -90.01161 10.05236 79.78626 -2.77584 5.17227 80.49856 97.77068 -64.16904 5.33889 -98.64253 11.09783 -0.6537 39.65363 -3.00681 -2.34065 -22.19131 -6.92295 -3.95345 -2.70784 43.89105 8.59568 0.52631 -27.67045 -6.77637 3.79153 2.62645
-0.00068 -0.00016 0.00017 23.23187 -25.6436 -6.82185 44.01938 2.79682 -3.32755 -8.58324 -2.27588 -0.35837 -64.4004 -80.19279 -90.01159 10.04274 79.77811 -2.68425 5.17322 80.74274 97.75211 -64.16904 5.33765 -98.7069 11.11081 -0.68227 39.66674 -3.04451 -2.53831 -22.19631 -6.91287 -3.93001 -2.69569 43.90837 8.61616 0.60481 -27.67329 -6.77406 3.78607 2.62217
-0.00077 -0.00018 0.00019 23.23862 -25.65304 -6.82676 44.02195 2.79384 -3.32223 -8.57645 -2.27598 -0.35848 -64.40039 -80.18656 -90.01157 10.03262 79.76989 -2.58846 5.17397 80.98708 97.73215 -64.16905 5.33632 -98.77465 11.1237 -0.70922 39.68253 -3.08211 -2.73588 -22.20205 -6.90292 -3.90737 -2.68375 43.92827 8.63909 0.69259 -27.67652 -6.77155 3.78023 2.61751
-0.00084 -0.00019 0.00021 23.24508 -25.6589 -6.83085 44.02085 2.79093 -3.31815 -8.57103 -2.276 -0.3586 -64.40038 -80.18464 -90.01155 10.02357 79.76186 -2.50172 5.17515 81.23025 97.71516 -64.16906 5.33518 -98.83495 11.13678 -0.7395 39.69273 -3.11969 -2.93247 -22.20622 -6.89275 -3.88318 -2.67142 43.94275 8.65683 0.76061 -27.67893 -6.76944 3.77521 2.61366
-0.00088 -0.0002 0.00021 23.25109 -25.65443 -6.83269 44.0091 2.78827 -3.31774 -8.56901 -2.27588 -0.35873 -64.40038 -80.19485 -90.01155 10.01728 79.75407 -2.43836 5.17744 81.4772 97.70614 -64.16906 5.33459 -98.87744 11.15053 -0.7798 39.68697 -3.15922 -3.13645 -22.206 -6.88154 -3.85351 -2.65745 43.94196 8.66061 0.77543 -27.6791 -6.76844 3.77251 2.61202
-0.0009 -0.0002 0.00021 23.25676 -25.64645 -6.83371 43.99376 2.78568 -3.31854 -8.56844 -2.27568 -0.35887 -64.40038 -80.20932 -90.01156 10.01209 79.74652 -2.38438 5.18017 81.72166 97.70013 -64.16907 5.3342 -98.91202 11.16443 -0.82328 39.67571 -3.19841 -3.33774 -22.20419 -6.87018 -3.82251 -2.64317 43.93579 8.65915 0.77025 -27.67845 -6.76783 3.77065 2.61119
-0.00093 -0.00021 0.00021 23.26236 -25.64044 -6.83511 43.98043 2.78305 -3.3186 -8.56743 -2.27545 -0.35901 -64.40038 -80.22165 -90.01155 10.00653 79.73905 -2.32701 5.18277 81.96278 97.69285 -64.16908 5.33372 -98.94845 11.17817 -0.86477 39.66742 -3.23643 -3.53351 -22.20316 -6.85918 -3.79293 -2.62937 43.93237 8.65993 0.77353 -27.6782 -6.76702 3.76837 2.61001
-0.00096 -0.00021 0.00021 23.26889 -25.63289 -6.83648 43.96553 2.78044 -3.31943 -8.56549 -2.27548 -0.35915 -64.40038 -80.23488 -90.01156 10.00048 79.7308 -2.26583 5.18513 82.22296 97.68515 -64.16908 5.33321 -98.99202 11.19235 -0.90864 39.65721 -3.27991 -3.75713 -22.20193 -6.84696 -3.75991 -2.61412 43.92772 8.66126 0.7793 -27.67784 -6.76628 3.76622 2.60878
-0.00098 -0.00021 0.0002 23.27341 -25.62766 -6.83772 43.95299 2.77781 -3.31898 -8.56585 -2.27497 -0.35929 -64.40038 -80.24724 -90.01155 9.99566 79.72421 -2.21497 5.18803 82.44262 97.67905 -64.16909 5.33281 -99.01911 11.20557 -0.94822 39.6496 -3.31207 -3.92285 -22.20072 -6.83725 -3.73372 -2.60183 43.92427 8.66025 0.77531 -27.67751 -6.76551 3.76401 2.60784
